# xmcd CD database file
#
# Track frame offsets:
#	150
#	20007
#	42413
#	63843
#	87862
#	116508
#	131408
#	163310
#	175899
#	193905
#	216221
#	234770
#	258609
#	273576
#	294076
#	309953
#
# Disc length: 4324 seconds
#
# Revision: 1
# Processed by: cddbd v1.5.1PL2 Copyright (c) Steve Scherf et al.
# Submitted via: CDex 1.51
#
DISCID=e310e210
DTITLE=DDT Jazzband - Back To The Source - Hotter Than Ever! - Disc 2
DYEAR=2003
DGENRE=Jazz
TTITLE0=Tiger Rag
TTITLE1=Rockin' Chair
TTITLE2=Bourbon Street Parade
TTITLE3=King Porter Stomp
TTITLE4=Burgundy Street Blues
TTITLE5=Eh La Bas
TTITLE6=Fidelito Castrato
TTITLE7=Puttin' On The Ritz
TTITLE8=Black Beauty
TTITLE9=Black and Tan Fantasy
TTITLE10=Jumpin' At The Woodside
TTITLE11=Mama's Gone Goodbye
TTITLE12=Sweet Substitute
TTITLE13=King Of The Zulus
TTITLE14=Emaline
TTITLE15=Way Up In Gloryland
EXTD=YEAR: 2003
EXTT0=
EXTT1=
EXTT2=
EXTT3=
EXTT4=
EXTT5=
EXTT6=
EXTT7=
EXTT8=
EXTT9=
EXTT10=
EXTT11=
EXTT12=
EXTT13=
EXTT14=
EXTT15=
PLAYORDER=
